<mxfile host="app.diagrams.net" modified="2021-09-30T10:13:25.455Z" agent="5.0 (Windows)" etag="iX1G5KF_QTGw9uzZwfCo" version="15.3.8" type="github" pages="2">
  <diagram id="bZHQE7Xr6MGtghcZcfGF" name="Страница 1">
    <mxGraphModel dx="1038" dy="495" grid="1" gridSize="10" guides="1" tooltips="1" connect="1" arrows="1" fold="1" page="1" pageScale="1" pageWidth="827" pageHeight="1169" math="0" shadow="0">
      <root>
        <mxCell id="0" />
        <mxCell id="1" parent="0" />
        <mxCell id="hUNW-Kl5BA0C6bf2Iyxr-1" value="Клиент" style="shape=umlActor;verticalLabelPosition=bottom;verticalAlign=top;html=1;outlineConnect=0;" parent="1" vertex="1">
          <mxGeometry x="60" y="215" width="30" height="60" as="geometry" />
        </mxCell>
        <mxCell id="hUNW-Kl5BA0C6bf2Iyxr-2" value="Регистратура" style="shape=umlActor;verticalLabelPosition=bottom;verticalAlign=top;html=1;outlineConnect=0;" parent="1" vertex="1">
          <mxGeometry x="615" y="145" width="30" height="60" as="geometry" />
        </mxCell>
        <mxCell id="hUNW-Kl5BA0C6bf2Iyxr-3" style="edgeStyle=none;orthogonalLoop=1;jettySize=auto;html=1;endArrow=none;" parent="1" source="hUNW-Kl5BA0C6bf2Iyxr-4" target="hUNW-Kl5BA0C6bf2Iyxr-9" edge="1">
          <mxGeometry relative="1" as="geometry" />
        </mxCell>
        <mxCell id="hUNW-Kl5BA0C6bf2Iyxr-4" value="Врач" style="shape=umlActor;verticalLabelPosition=bottom;verticalAlign=top;html=1;outlineConnect=0;" parent="1" vertex="1">
          <mxGeometry x="615" y="290" width="30" height="60" as="geometry" />
        </mxCell>
        <mxCell id="hUNW-Kl5BA0C6bf2Iyxr-5" value="Запись" style="ellipse;whiteSpace=wrap;html=1;flipV=1;" parent="1" vertex="1">
          <mxGeometry x="115" y="225" width="110" height="40" as="geometry" />
        </mxCell>
        <mxCell id="hUNW-Kl5BA0C6bf2Iyxr-6" value="" style="endArrow=none;html=1;" parent="1" source="hUNW-Kl5BA0C6bf2Iyxr-1" target="hUNW-Kl5BA0C6bf2Iyxr-5" edge="1">
          <mxGeometry width="50" height="50" relative="1" as="geometry">
            <mxPoint x="250" y="150" as="sourcePoint" />
            <mxPoint x="300" y="110" as="targetPoint" />
            <Array as="points" />
          </mxGeometry>
        </mxCell>
        <mxCell id="hUNW-Kl5BA0C6bf2Iyxr-7" style="edgeStyle=none;orthogonalLoop=1;jettySize=auto;html=1;endArrow=none;" parent="1" source="hUNW-Kl5BA0C6bf2Iyxr-8" target="hUNW-Kl5BA0C6bf2Iyxr-4" edge="1">
          <mxGeometry relative="1" as="geometry" />
        </mxCell>
        <mxCell id="hUNW-Kl5BA0C6bf2Iyxr-8" value="Онлайн консультация" style="ellipse;whiteSpace=wrap;html=1;flipV=1;" parent="1" vertex="1">
          <mxGeometry x="295" y="410" width="100" height="40" as="geometry" />
        </mxCell>
        <mxCell id="hUNW-Kl5BA0C6bf2Iyxr-9" value="Офлайн прием" style="ellipse;whiteSpace=wrap;html=1;flipV=1;" parent="1" vertex="1">
          <mxGeometry x="290" y="225" width="110" height="40" as="geometry" />
        </mxCell>
        <mxCell id="hUNW-Kl5BA0C6bf2Iyxr-10" value="Оплата" style="ellipse;whiteSpace=wrap;html=1;flipV=1;" parent="1" vertex="1">
          <mxGeometry x="120" y="410" width="100" height="40" as="geometry" />
        </mxCell>
        <mxCell id="hUNW-Kl5BA0C6bf2Iyxr-11" value="" style="edgeStyle=none;orthogonalLoop=1;jettySize=auto;html=1;endArrow=none;" parent="1" source="hUNW-Kl5BA0C6bf2Iyxr-12" target="hUNW-Kl5BA0C6bf2Iyxr-2" edge="1">
          <mxGeometry relative="1" as="geometry" />
        </mxCell>
        <mxCell id="hUNW-Kl5BA0C6bf2Iyxr-12" value="Принимает запись" style="ellipse;whiteSpace=wrap;html=1;" parent="1" vertex="1">
          <mxGeometry x="466.5" y="70" width="110" height="50" as="geometry" />
        </mxCell>
        <mxCell id="hUNW-Kl5BA0C6bf2Iyxr-13" value="" style="edgeStyle=none;orthogonalLoop=1;jettySize=auto;html=1;endArrow=none;" parent="1" source="hUNW-Kl5BA0C6bf2Iyxr-14" target="hUNW-Kl5BA0C6bf2Iyxr-2" edge="1">
          <mxGeometry relative="1" as="geometry" />
        </mxCell>
        <mxCell id="hUNW-Kl5BA0C6bf2Iyxr-14" value="Подготовка мед. документов" style="ellipse;whiteSpace=wrap;html=1;" parent="1" vertex="1">
          <mxGeometry x="285" y="140" width="120" height="70" as="geometry" />
        </mxCell>
        <mxCell id="hUNW-Kl5BA0C6bf2Iyxr-15" value="Прием оплаты" style="ellipse;whiteSpace=wrap;html=1;" parent="1" vertex="1">
          <mxGeometry x="287.5" y="70" width="115" height="50" as="geometry" />
        </mxCell>
        <mxCell id="hUNW-Kl5BA0C6bf2Iyxr-16" value="" style="edgeStyle=none;orthogonalLoop=1;jettySize=auto;html=1;endArrow=none;" parent="1" source="hUNW-Kl5BA0C6bf2Iyxr-17" target="hUNW-Kl5BA0C6bf2Iyxr-4" edge="1">
          <mxGeometry relative="1" as="geometry" />
        </mxCell>
        <mxCell id="hUNW-Kl5BA0C6bf2Iyxr-17" value="Просмотр расписания приемов" style="ellipse;whiteSpace=wrap;html=1;" parent="1" vertex="1">
          <mxGeometry x="466.5" y="400" width="135" height="60" as="geometry" />
        </mxCell>
        <mxCell id="hUNW-Kl5BA0C6bf2Iyxr-18" value="&lt;div&gt;Подготовка&lt;br&gt;&lt;/div&gt;&lt;div&gt;заключения&lt;/div&gt;" style="ellipse;whiteSpace=wrap;html=1;" parent="1" vertex="1">
          <mxGeometry x="344" y="310" width="110" height="40" as="geometry" />
        </mxCell>
        <mxCell id="hUNW-Kl5BA0C6bf2Iyxr-19" style="edgeStyle=none;orthogonalLoop=1;jettySize=auto;html=1;exitX=0.5;exitY=0;exitDx=0;exitDy=0;endArrow=none;" parent="1" source="hUNW-Kl5BA0C6bf2Iyxr-10" target="hUNW-Kl5BA0C6bf2Iyxr-10" edge="1">
          <mxGeometry relative="1" as="geometry" />
        </mxCell>
        <mxCell id="hUNW-Kl5BA0C6bf2Iyxr-20" value="&amp;lt;&amp;lt;extend&amp;gt;&amp;gt;" style="html=1;verticalAlign=bottom;labelBackgroundColor=none;endArrow=open;endFill=0;dashed=1;" parent="1" source="hUNW-Kl5BA0C6bf2Iyxr-9" target="hUNW-Kl5BA0C6bf2Iyxr-5" edge="1">
          <mxGeometry width="160" relative="1" as="geometry">
            <mxPoint x="270" y="20" as="sourcePoint" />
            <mxPoint x="430" y="20" as="targetPoint" />
          </mxGeometry>
        </mxCell>
        <mxCell id="hUNW-Kl5BA0C6bf2Iyxr-21" value="&amp;lt;&amp;lt;extend&amp;gt;&amp;gt;" style="html=1;verticalAlign=bottom;labelBackgroundColor=none;endArrow=open;endFill=0;dashed=1;" parent="1" source="hUNW-Kl5BA0C6bf2Iyxr-8" target="hUNW-Kl5BA0C6bf2Iyxr-5" edge="1">
          <mxGeometry width="160" relative="1" as="geometry">
            <mxPoint x="350.7274189492059" y="57.94699932240519" as="sourcePoint" />
            <mxPoint x="209.3402014972039" y="162.06511468627082" as="targetPoint" />
          </mxGeometry>
        </mxCell>
        <mxCell id="hUNW-Kl5BA0C6bf2Iyxr-22" value="&amp;lt;&amp;lt;include&amp;gt;&amp;gt;" style="html=1;verticalAlign=bottom;labelBackgroundColor=none;endArrow=open;endFill=0;dashed=1;" parent="1" source="hUNW-Kl5BA0C6bf2Iyxr-5" target="hUNW-Kl5BA0C6bf2Iyxr-10" edge="1">
          <mxGeometry width="160" relative="1" as="geometry">
            <mxPoint x="110" y="360" as="sourcePoint" />
            <mxPoint x="270" y="360" as="targetPoint" />
          </mxGeometry>
        </mxCell>
        <mxCell id="hUNW-Kl5BA0C6bf2Iyxr-23" value="&amp;lt;&amp;lt;include&amp;gt;&amp;gt;" style="html=1;verticalAlign=bottom;labelBackgroundColor=none;endArrow=open;endFill=0;dashed=1;" parent="1" source="hUNW-Kl5BA0C6bf2Iyxr-12" target="hUNW-Kl5BA0C6bf2Iyxr-15" edge="1">
          <mxGeometry width="160" relative="1" as="geometry">
            <mxPoint x="227.76830855778326" y="324.3606387800842" as="sourcePoint" />
            <mxPoint x="306.8241045184984" y="315.35287727572245" as="targetPoint" />
          </mxGeometry>
        </mxCell>
        <mxCell id="hUNW-Kl5BA0C6bf2Iyxr-24" value="&amp;lt;&amp;lt;include&amp;gt;&amp;gt;" style="html=1;verticalAlign=bottom;labelBackgroundColor=none;endArrow=open;endFill=0;dashed=1;" parent="1" source="hUNW-Kl5BA0C6bf2Iyxr-9" target="hUNW-Kl5BA0C6bf2Iyxr-18" edge="1">
          <mxGeometry x="0.1156" y="-1" width="160" relative="1" as="geometry">
            <mxPoint x="487.9267520603794" y="424.3204056582872" as="sourcePoint" />
            <mxPoint x="563.9953863411138" y="420.00136742549375" as="targetPoint" />
            <mxPoint as="offset" />
          </mxGeometry>
        </mxCell>
        <mxCell id="hUNW-Kl5BA0C6bf2Iyxr-25" value="&amp;lt;&amp;lt;include&amp;gt;&amp;gt;" style="html=1;verticalAlign=bottom;labelBackgroundColor=none;endArrow=open;endFill=0;dashed=1;" parent="1" source="hUNW-Kl5BA0C6bf2Iyxr-8" target="hUNW-Kl5BA0C6bf2Iyxr-18" edge="1">
          <mxGeometry x="-0.2718" width="160" relative="1" as="geometry">
            <mxPoint x="392.15817694370025" y="269.7453083109922" as="sourcePoint" />
            <mxPoint x="481.8171822337406" y="305.2629075926411" as="targetPoint" />
            <mxPoint as="offset" />
          </mxGeometry>
        </mxCell>
        <mxCell id="hUNW-Kl5BA0C6bf2Iyxr-26" value="&amp;lt;&amp;lt;extend&amp;gt;&amp;gt;" style="html=1;verticalAlign=bottom;labelBackgroundColor=none;endArrow=open;endFill=0;dashed=1;" parent="1" source="hUNW-Kl5BA0C6bf2Iyxr-14" target="hUNW-Kl5BA0C6bf2Iyxr-5" edge="1">
          <mxGeometry width="160" relative="1" as="geometry">
            <mxPoint x="321.4603574836194" y="270.850926942673" as="sourcePoint" />
            <mxPoint x="208.5566109119211" y="324.1538226249262" as="targetPoint" />
          </mxGeometry>
        </mxCell>
      </root>
    </mxGraphModel>
  </diagram>
  <diagram name="Page-2" id="TJ87l_u8VcPyJOHHaxW5">
    <mxGraphModel dx="2076" dy="990" grid="1" gridSize="10" guides="1" tooltips="1" connect="1" arrows="1" fold="1" page="1" pageScale="1" pageWidth="1169" pageHeight="827" math="0" shadow="0">
      <root>
        <mxCell id="chyshb_qgsGk9aUkCrZT-0" />
        <mxCell id="chyshb_qgsGk9aUkCrZT-1" parent="chyshb_qgsGk9aUkCrZT-0" />
        <mxCell id="M_wIs46ElPFsulJQE06Q-1" value="" style="edgeStyle=orthogonalEdgeStyle;rounded=0;orthogonalLoop=1;jettySize=auto;html=1;" parent="chyshb_qgsGk9aUkCrZT-1" source="chyshb_qgsGk9aUkCrZT-3" target="M_wIs46ElPFsulJQE06Q-0" edge="1">
          <mxGeometry relative="1" as="geometry" />
        </mxCell>
        <mxCell id="chyshb_qgsGk9aUkCrZT-3" value="Заходит на сайт" style="html=1;dashed=0;whitespace=wrap;" parent="chyshb_qgsGk9aUkCrZT-1" vertex="1">
          <mxGeometry x="240" y="110" width="100" height="50" as="geometry" />
        </mxCell>
        <mxCell id="chyshb_qgsGk9aUkCrZT-4" value="Клиент" style="shape=umlActor;verticalLabelPosition=bottom;verticalAlign=top;html=1;outlineConnect=0;" parent="chyshb_qgsGk9aUkCrZT-1" vertex="1">
          <mxGeometry x="140" y="105" width="30" height="60" as="geometry" />
        </mxCell>
        <mxCell id="jg4e_ubm0wkgg6tRbPcu-0" value="" style="endArrow=none;html=1;" parent="chyshb_qgsGk9aUkCrZT-1" source="chyshb_qgsGk9aUkCrZT-4" target="chyshb_qgsGk9aUkCrZT-3" edge="1">
          <mxGeometry width="50" height="50" relative="1" as="geometry">
            <mxPoint x="70" y="350" as="sourcePoint" />
            <mxPoint x="120" y="300" as="targetPoint" />
          </mxGeometry>
        </mxCell>
        <mxCell id="P5TsoUk4Y7HU9h1jnUvT-0" value="&lt;h1&gt;Действия&lt;br&gt;&lt;/h1&gt;&lt;p&gt;Клиент:&lt;/p&gt;&lt;p&gt;1) записывается на онлайн/оффлайн прием&lt;br&gt;2) передает документы&lt;br&gt;3) производит оплату&lt;br&gt;&lt;/p&gt;&lt;p&gt;4) посещение врача&lt;/p&gt;&lt;p&gt;&lt;br&gt;&lt;/p&gt;&lt;div&gt;&lt;br&gt;&lt;/div&gt;&lt;div&gt;&lt;br&gt;&lt;/div&gt;" style="text;html=1;strokeColor=none;fillColor=none;spacing=5;spacingTop=-20;whiteSpace=wrap;overflow=hidden;rounded=0;" parent="chyshb_qgsGk9aUkCrZT-1" vertex="1">
          <mxGeometry x="10" y="220" width="190" height="180" as="geometry" />
        </mxCell>
        <mxCell id="M_wIs46ElPFsulJQE06Q-7" style="edgeStyle=orthogonalEdgeStyle;rounded=0;orthogonalLoop=1;jettySize=auto;html=1;" parent="chyshb_qgsGk9aUkCrZT-1" source="M_wIs46ElPFsulJQE06Q-0" target="M_wIs46ElPFsulJQE06Q-6" edge="1">
          <mxGeometry relative="1" as="geometry" />
        </mxCell>
        <mxCell id="M_wIs46ElPFsulJQE06Q-0" value="Выбор типа записи" style="whiteSpace=wrap;html=1;dashed=0;" parent="chyshb_qgsGk9aUkCrZT-1" vertex="1">
          <mxGeometry x="410" y="105" width="120" height="60" as="geometry" />
        </mxCell>
        <mxCell id="M_wIs46ElPFsulJQE06Q-4" style="edgeStyle=orthogonalEdgeStyle;rounded=0;orthogonalLoop=1;jettySize=auto;html=1;" parent="chyshb_qgsGk9aUkCrZT-1" source="M_wIs46ElPFsulJQE06Q-3" target="M_wIs46ElPFsulJQE06Q-0" edge="1">
          <mxGeometry relative="1" as="geometry" />
        </mxCell>
        <mxCell id="M_wIs46ElPFsulJQE06Q-3" value="типы записей" style="html=1;dashed=0;whitespace=wrap;shape=partialRectangle;right=0;" parent="chyshb_qgsGk9aUkCrZT-1" vertex="1">
          <mxGeometry x="420" y="220" width="100" height="30" as="geometry" />
        </mxCell>
        <mxCell id="M_wIs46ElPFsulJQE06Q-8" value="онлайн" style="edgeStyle=orthogonalEdgeStyle;rounded=1;orthogonalLoop=1;jettySize=auto;html=1;" parent="chyshb_qgsGk9aUkCrZT-1" source="M_wIs46ElPFsulJQE06Q-6" target="M_wIs46ElPFsulJQE06Q-10" edge="1">
          <mxGeometry x="-0.5714" relative="1" as="geometry">
            <mxPoint x="720" y="40" as="targetPoint" />
            <Array as="points">
              <mxPoint x="650" y="40" />
            </Array>
            <mxPoint as="offset" />
          </mxGeometry>
        </mxCell>
        <mxCell id="M_wIs46ElPFsulJQE06Q-9" value="офлайн" style="edgeStyle=orthogonalEdgeStyle;rounded=1;orthogonalLoop=1;jettySize=auto;html=1;" parent="chyshb_qgsGk9aUkCrZT-1" source="M_wIs46ElPFsulJQE06Q-6" target="M_wIs46ElPFsulJQE06Q-12" edge="1">
          <mxGeometry x="-0.5" relative="1" as="geometry">
            <mxPoint x="720" y="210" as="targetPoint" />
            <Array as="points">
              <mxPoint x="650" y="210" />
            </Array>
            <mxPoint as="offset" />
          </mxGeometry>
        </mxCell>
        <mxCell id="M_wIs46ElPFsulJQE06Q-6" value="" style="shape=rhombus;html=1;dashed=0;whitespace=wrap;perimeter=rhombusPerimeter;" parent="chyshb_qgsGk9aUkCrZT-1" vertex="1">
          <mxGeometry x="620" y="110" width="60" height="50" as="geometry" />
        </mxCell>
        <mxCell id="M_wIs46ElPFsulJQE06Q-14" style="edgeStyle=orthogonalEdgeStyle;rounded=1;orthogonalLoop=1;jettySize=auto;html=1;" parent="chyshb_qgsGk9aUkCrZT-1" source="M_wIs46ElPFsulJQE06Q-10" target="M_wIs46ElPFsulJQE06Q-13" edge="1">
          <mxGeometry relative="1" as="geometry">
            <Array as="points">
              <mxPoint x="920" y="45" />
            </Array>
          </mxGeometry>
        </mxCell>
        <mxCell id="M_wIs46ElPFsulJQE06Q-18" style="edgeStyle=orthogonalEdgeStyle;rounded=1;orthogonalLoop=1;jettySize=auto;html=1;jumpStyle=arc;jumpSize=12;" parent="chyshb_qgsGk9aUkCrZT-1" source="M_wIs46ElPFsulJQE06Q-10" target="M_wIs46ElPFsulJQE06Q-16" edge="1">
          <mxGeometry relative="1" as="geometry">
            <Array as="points">
              <mxPoint x="780" y="110" />
              <mxPoint x="880" y="110" />
              <mxPoint x="880" y="280" />
              <mxPoint x="780" y="280" />
            </Array>
          </mxGeometry>
        </mxCell>
        <mxCell id="M_wIs46ElPFsulJQE06Q-10" value="Передать&lt;br&gt;документы&lt;br&gt;для онлайн-записи" style="html=1;dashed=0;whitespace=wrap;" parent="chyshb_qgsGk9aUkCrZT-1" vertex="1">
          <mxGeometry x="720" y="20" width="120" height="50" as="geometry" />
        </mxCell>
        <mxCell id="M_wIs46ElPFsulJQE06Q-15" style="edgeStyle=orthogonalEdgeStyle;rounded=1;orthogonalLoop=1;jettySize=auto;html=1;jumpStyle=arc;jumpSize=11;" parent="chyshb_qgsGk9aUkCrZT-1" source="M_wIs46ElPFsulJQE06Q-12" target="M_wIs46ElPFsulJQE06Q-13" edge="1">
          <mxGeometry relative="1" as="geometry">
            <Array as="points">
              <mxPoint x="920" y="205" />
            </Array>
          </mxGeometry>
        </mxCell>
        <mxCell id="M_wIs46ElPFsulJQE06Q-17" style="edgeStyle=orthogonalEdgeStyle;rounded=0;orthogonalLoop=1;jettySize=auto;html=1;" parent="chyshb_qgsGk9aUkCrZT-1" source="M_wIs46ElPFsulJQE06Q-12" target="M_wIs46ElPFsulJQE06Q-16" edge="1">
          <mxGeometry relative="1" as="geometry" />
        </mxCell>
        <mxCell id="M_wIs46ElPFsulJQE06Q-12" value="Передать&lt;br&gt;документы&lt;br&gt;для офлайн-записи" style="html=1;dashed=0;whitespace=wrap;" parent="chyshb_qgsGk9aUkCrZT-1" vertex="1">
          <mxGeometry x="720" y="180" width="120" height="50" as="geometry" />
        </mxCell>
        <mxCell id="M_wIs46ElPFsulJQE06Q-23" style="edgeStyle=none;rounded=1;jumpStyle=arc;jumpSize=11;orthogonalLoop=1;jettySize=auto;html=1;" parent="chyshb_qgsGk9aUkCrZT-1" source="M_wIs46ElPFsulJQE06Q-13" target="M_wIs46ElPFsulJQE06Q-22" edge="1">
          <mxGeometry relative="1" as="geometry" />
        </mxCell>
        <mxCell id="cs4Cjibk9OwdWQ8Tq4Z0-1" value="" style="edgeStyle=orthogonalEdgeStyle;rounded=0;orthogonalLoop=1;jettySize=auto;html=1;" parent="chyshb_qgsGk9aUkCrZT-1" source="M_wIs46ElPFsulJQE06Q-13" target="cs4Cjibk9OwdWQ8Tq4Z0-0" edge="1">
          <mxGeometry relative="1" as="geometry" />
        </mxCell>
        <mxCell id="_Hzn1EHsOx0p-OMz16X2-3" style="edgeStyle=orthogonalEdgeStyle;rounded=1;orthogonalLoop=1;jettySize=auto;html=1;entryX=0.5;entryY=0;entryDx=0;entryDy=0;" edge="1" parent="chyshb_qgsGk9aUkCrZT-1" source="M_wIs46ElPFsulJQE06Q-13" target="_Hzn1EHsOx0p-OMz16X2-2">
          <mxGeometry relative="1" as="geometry">
            <Array as="points">
              <mxPoint x="980" y="220" />
              <mxPoint x="1080" y="220" />
            </Array>
          </mxGeometry>
        </mxCell>
        <mxCell id="M_wIs46ElPFsulJQE06Q-13" value="Выполнить оплату" style="whiteSpace=wrap;html=1;dashed=0;" parent="chyshb_qgsGk9aUkCrZT-1" vertex="1">
          <mxGeometry x="900" y="90" width="120" height="60" as="geometry" />
        </mxCell>
        <mxCell id="M_wIs46ElPFsulJQE06Q-16" value="документы" style="html=1;dashed=0;whitespace=wrap;shape=partialRectangle;right=0;" parent="chyshb_qgsGk9aUkCrZT-1" vertex="1">
          <mxGeometry x="730" y="309" width="100" height="30" as="geometry" />
        </mxCell>
        <mxCell id="M_wIs46ElPFsulJQE06Q-22" value="платеж" style="html=1;dashed=0;whitespace=wrap;shape=partialRectangle;right=0;" parent="chyshb_qgsGk9aUkCrZT-1" vertex="1">
          <mxGeometry x="910" y="309" width="100" height="30" as="geometry" />
        </mxCell>
        <mxCell id="dU9Qp3HIcsZKu6jttzmx-1" style="edgeStyle=none;orthogonalLoop=1;jettySize=auto;html=1;endArrow=none;fillColor=#f8cecc;strokeColor=#b85450;" parent="chyshb_qgsGk9aUkCrZT-1" source="dU9Qp3HIcsZKu6jttzmx-0" target="M_wIs46ElPFsulJQE06Q-16" edge="1">
          <mxGeometry relative="1" as="geometry" />
        </mxCell>
        <mxCell id="dU9Qp3HIcsZKu6jttzmx-2" style="edgeStyle=none;orthogonalLoop=1;jettySize=auto;html=1;endArrow=none;fillColor=#f8cecc;strokeColor=#b85450;" parent="chyshb_qgsGk9aUkCrZT-1" source="dU9Qp3HIcsZKu6jttzmx-0" target="M_wIs46ElPFsulJQE06Q-22" edge="1">
          <mxGeometry relative="1" as="geometry" />
        </mxCell>
        <mxCell id="dU9Qp3HIcsZKu6jttzmx-4" style="edgeStyle=none;orthogonalLoop=1;jettySize=auto;html=1;endArrow=none;fillColor=#f8cecc;strokeColor=#b85450;" parent="chyshb_qgsGk9aUkCrZT-1" source="dU9Qp3HIcsZKu6jttzmx-0" target="dU9Qp3HIcsZKu6jttzmx-3" edge="1">
          <mxGeometry relative="1" as="geometry" />
        </mxCell>
        <mxCell id="dU9Qp3HIcsZKu6jttzmx-0" value="Регистратура" style="shape=umlActor;verticalLabelPosition=bottom;verticalAlign=top;html=1;outlineConnect=0;" parent="chyshb_qgsGk9aUkCrZT-1" vertex="1">
          <mxGeometry x="140" y="450" width="30" height="60" as="geometry" />
        </mxCell>
        <mxCell id="_Hzn1EHsOx0p-OMz16X2-5" style="edgeStyle=orthogonalEdgeStyle;rounded=1;orthogonalLoop=1;jettySize=auto;html=1;" edge="1" parent="chyshb_qgsGk9aUkCrZT-1" source="dU9Qp3HIcsZKu6jttzmx-3" target="_Hzn1EHsOx0p-OMz16X2-6">
          <mxGeometry relative="1" as="geometry">
            <mxPoint x="730" y="470" as="targetPoint" />
          </mxGeometry>
        </mxCell>
        <mxCell id="dU9Qp3HIcsZKu6jttzmx-3" value="Одобрить запись" style="whiteSpace=wrap;html=1;dashed=0;fillColor=#f8cecc;strokeColor=#b85450;" parent="chyshb_qgsGk9aUkCrZT-1" vertex="1">
          <mxGeometry x="510" y="440" width="120" height="60" as="geometry" />
        </mxCell>
        <mxCell id="cs4Cjibk9OwdWQ8Tq4Z0-0" value="Посещение врача" style="whiteSpace=wrap;html=1;dashed=0;" parent="chyshb_qgsGk9aUkCrZT-1" vertex="1">
          <mxGeometry x="1100" y="90" width="120" height="60" as="geometry" />
        </mxCell>
        <mxCell id="cs4Cjibk9OwdWQ8Tq4Z0-2" value="&lt;h1&gt;Действия&lt;br&gt;&lt;/h1&gt;&lt;p&gt;Регистратура:&lt;/p&gt;&lt;p&gt;1) принимает запись пациента&lt;br&gt;2) принимает документы&lt;br&gt;3) принимает оплату&lt;br&gt;&lt;/p&gt;&lt;p&gt;&lt;br&gt;&lt;/p&gt;&lt;div&gt;&lt;br&gt;&lt;/div&gt;&lt;div&gt;&lt;br&gt;&lt;/div&gt;" style="text;html=1;strokeColor=none;fillColor=none;spacing=5;spacingTop=-20;whiteSpace=wrap;overflow=hidden;rounded=0;" parent="chyshb_qgsGk9aUkCrZT-1" vertex="1">
          <mxGeometry x="10" y="860" width="190" height="180" as="geometry" />
        </mxCell>
        <mxCell id="cs4Cjibk9OwdWQ8Tq4Z0-3" value="Регистратура" style="shape=umlActor;verticalLabelPosition=bottom;verticalAlign=top;html=1;outlineConnect=0;strokeColor=#CCCCCC;" parent="chyshb_qgsGk9aUkCrZT-1" vertex="1">
          <mxGeometry x="130" y="760" width="30" height="60" as="geometry" />
        </mxCell>
        <mxCell id="cs4Cjibk9OwdWQ8Tq4Z0-9" value="" style="edgeStyle=orthogonalEdgeStyle;rounded=0;orthogonalLoop=1;jettySize=auto;html=1;" parent="chyshb_qgsGk9aUkCrZT-1" source="cs4Cjibk9OwdWQ8Tq4Z0-4" target="cs4Cjibk9OwdWQ8Tq4Z0-8" edge="1">
          <mxGeometry relative="1" as="geometry" />
        </mxCell>
        <mxCell id="AYNb8dDpuPRthrVBNWEp-6" style="edgeStyle=orthogonalEdgeStyle;rounded=0;orthogonalLoop=1;jettySize=auto;html=1;entryX=0.5;entryY=0;entryDx=0;entryDy=0;strokeColor=#000000;" parent="chyshb_qgsGk9aUkCrZT-1" source="cs4Cjibk9OwdWQ8Tq4Z0-4" target="AYNb8dDpuPRthrVBNWEp-5" edge="1">
          <mxGeometry relative="1" as="geometry" />
        </mxCell>
        <mxCell id="cs4Cjibk9OwdWQ8Tq4Z0-4" value="Принимает запись" style="rounded=0;whiteSpace=wrap;html=1;" parent="chyshb_qgsGk9aUkCrZT-1" vertex="1">
          <mxGeometry x="230" y="760" width="120" height="60" as="geometry" />
        </mxCell>
        <mxCell id="cs4Cjibk9OwdWQ8Tq4Z0-6" value="" style="endArrow=none;html=1;entryX=0;entryY=0.5;entryDx=0;entryDy=0;strokeColor=#CCCCCC;" parent="chyshb_qgsGk9aUkCrZT-1" source="cs4Cjibk9OwdWQ8Tq4Z0-3" edge="1">
          <mxGeometry width="50" height="50" relative="1" as="geometry">
            <mxPoint x="170" y="795" as="sourcePoint" />
            <mxPoint x="220" y="790" as="targetPoint" />
            <Array as="points" />
          </mxGeometry>
        </mxCell>
        <mxCell id="cs4Cjibk9OwdWQ8Tq4Z0-11" value="" style="edgeStyle=orthogonalEdgeStyle;rounded=0;orthogonalLoop=1;jettySize=auto;html=1;" parent="chyshb_qgsGk9aUkCrZT-1" source="cs4Cjibk9OwdWQ8Tq4Z0-8" target="cs4Cjibk9OwdWQ8Tq4Z0-10" edge="1">
          <mxGeometry relative="1" as="geometry" />
        </mxCell>
        <mxCell id="cs4Cjibk9OwdWQ8Tq4Z0-13" style="edgeStyle=orthogonalEdgeStyle;rounded=0;orthogonalLoop=1;jettySize=auto;html=1;entryX=0.5;entryY=0;entryDx=0;entryDy=0;" parent="chyshb_qgsGk9aUkCrZT-1" source="cs4Cjibk9OwdWQ8Tq4Z0-8" target="cs4Cjibk9OwdWQ8Tq4Z0-12" edge="1">
          <mxGeometry relative="1" as="geometry" />
        </mxCell>
        <mxCell id="cs4Cjibk9OwdWQ8Tq4Z0-8" value="Принимает документы" style="whiteSpace=wrap;html=1;rounded=0;" parent="chyshb_qgsGk9aUkCrZT-1" vertex="1">
          <mxGeometry x="430" y="760" width="120" height="60" as="geometry" />
        </mxCell>
        <mxCell id="cs4Cjibk9OwdWQ8Tq4Z0-15" style="edgeStyle=orthogonalEdgeStyle;rounded=0;orthogonalLoop=1;jettySize=auto;html=1;startArrow=classic;startFill=1;" parent="chyshb_qgsGk9aUkCrZT-1" source="cs4Cjibk9OwdWQ8Tq4Z0-10" target="cs4Cjibk9OwdWQ8Tq4Z0-14" edge="1">
          <mxGeometry relative="1" as="geometry">
            <mxPoint x="690.0588235294119" y="730" as="targetPoint" />
          </mxGeometry>
        </mxCell>
        <mxCell id="cs4Cjibk9OwdWQ8Tq4Z0-10" value="Принимает оплату" style="rounded=0;whiteSpace=wrap;html=1;" parent="chyshb_qgsGk9aUkCrZT-1" vertex="1">
          <mxGeometry x="630" y="760" width="120" height="60" as="geometry" />
        </mxCell>
        <mxCell id="cs4Cjibk9OwdWQ8Tq4Z0-12" value="документы" style="html=1;dashed=0;whitespace=wrap;shape=partialRectangle;right=0;" parent="chyshb_qgsGk9aUkCrZT-1" vertex="1">
          <mxGeometry x="440" y="860" width="100" height="30" as="geometry" />
        </mxCell>
        <mxCell id="cs4Cjibk9OwdWQ8Tq4Z0-14" value="платеж" style="html=1;dashed=0;whitespace=wrap;shape=partialRectangle;right=0;" parent="chyshb_qgsGk9aUkCrZT-1" vertex="1">
          <mxGeometry x="640" y="690" width="100" height="30" as="geometry" />
        </mxCell>
        <mxCell id="2UkPymPjS6IrArlJtV-6-0" value="Врач&lt;br&gt;" style="shape=umlActor;verticalLabelPosition=bottom;verticalAlign=top;html=1;outlineConnect=0;" parent="chyshb_qgsGk9aUkCrZT-1" vertex="1">
          <mxGeometry x="140" y="1390.5" width="30" height="60" as="geometry" />
        </mxCell>
        <mxCell id="ovW-oeSNcMlRHgaaRVNm-1" value="" style="edgeStyle=orthogonalEdgeStyle;rounded=0;orthogonalLoop=1;jettySize=auto;html=1;" parent="chyshb_qgsGk9aUkCrZT-1" source="2UkPymPjS6IrArlJtV-6-1" target="ovW-oeSNcMlRHgaaRVNm-0" edge="1">
          <mxGeometry relative="1" as="geometry" />
        </mxCell>
        <mxCell id="2UkPymPjS6IrArlJtV-6-1" value="Просмотр расписания приемов" style="rounded=0;whiteSpace=wrap;html=1;" parent="chyshb_qgsGk9aUkCrZT-1" vertex="1">
          <mxGeometry x="240" y="1390.5" width="120" height="60" as="geometry" />
        </mxCell>
        <mxCell id="2UkPymPjS6IrArlJtV-6-2" value="" style="endArrow=none;html=1;entryX=0;entryY=0.5;entryDx=0;entryDy=0;" parent="chyshb_qgsGk9aUkCrZT-1" source="2UkPymPjS6IrArlJtV-6-0" target="2UkPymPjS6IrArlJtV-6-1" edge="1">
          <mxGeometry width="50" height="50" relative="1" as="geometry">
            <mxPoint x="210" y="1550.5" as="sourcePoint" />
            <mxPoint x="260" y="1500.5" as="targetPoint" />
          </mxGeometry>
        </mxCell>
        <mxCell id="GF2MeVGgzaxk7HecmpOx-1" value="" style="edgeStyle=orthogonalEdgeStyle;rounded=0;orthogonalLoop=1;jettySize=auto;html=1;" parent="chyshb_qgsGk9aUkCrZT-1" source="ovW-oeSNcMlRHgaaRVNm-0" target="GF2MeVGgzaxk7HecmpOx-0" edge="1">
          <mxGeometry relative="1" as="geometry" />
        </mxCell>
        <mxCell id="ovW-oeSNcMlRHgaaRVNm-0" value="Проведение приема" style="rounded=0;whiteSpace=wrap;html=1;" parent="chyshb_qgsGk9aUkCrZT-1" vertex="1">
          <mxGeometry x="440" y="1390.5" width="120" height="60" as="geometry" />
        </mxCell>
        <mxCell id="GF2MeVGgzaxk7HecmpOx-3" value="оффлайн" style="edgeStyle=orthogonalEdgeStyle;rounded=1;orthogonalLoop=1;jettySize=auto;html=1;entryX=0;entryY=0.5;entryDx=0;entryDy=0;" parent="chyshb_qgsGk9aUkCrZT-1" source="GF2MeVGgzaxk7HecmpOx-0" target="GF2MeVGgzaxk7HecmpOx-2" edge="1">
          <mxGeometry x="-0.5385" relative="1" as="geometry">
            <Array as="points">
              <mxPoint x="680" y="1330" />
            </Array>
            <mxPoint as="offset" />
          </mxGeometry>
        </mxCell>
        <mxCell id="yCwoXSn0ml5JeQ-CER5t-1" value="онлайн" style="edgeStyle=orthogonalEdgeStyle;rounded=1;orthogonalLoop=1;jettySize=auto;html=1;entryX=0;entryY=0.5;entryDx=0;entryDy=0;" parent="chyshb_qgsGk9aUkCrZT-1" source="GF2MeVGgzaxk7HecmpOx-0" target="yCwoXSn0ml5JeQ-CER5t-0" edge="1">
          <mxGeometry x="-0.542" relative="1" as="geometry">
            <Array as="points">
              <mxPoint x="680" y="1511" />
            </Array>
            <mxPoint as="offset" />
          </mxGeometry>
        </mxCell>
        <mxCell id="GF2MeVGgzaxk7HecmpOx-0" value="" style="rhombus;whiteSpace=wrap;html=1;rounded=0;" parent="chyshb_qgsGk9aUkCrZT-1" vertex="1">
          <mxGeometry x="640" y="1380" width="80" height="80" as="geometry" />
        </mxCell>
        <mxCell id="pt7gLRfbFQfl7gQT_sUc-1" value="" style="edgeStyle=orthogonalEdgeStyle;rounded=1;orthogonalLoop=1;jettySize=auto;html=1;" parent="chyshb_qgsGk9aUkCrZT-1" source="GF2MeVGgzaxk7HecmpOx-2" target="pt7gLRfbFQfl7gQT_sUc-0" edge="1">
          <mxGeometry relative="1" as="geometry" />
        </mxCell>
        <mxCell id="GF2MeVGgzaxk7HecmpOx-2" value="Оффлайн прием" style="whiteSpace=wrap;html=1;rounded=0;" parent="chyshb_qgsGk9aUkCrZT-1" vertex="1">
          <mxGeometry x="760" y="1300" width="120" height="60" as="geometry" />
        </mxCell>
        <mxCell id="yCwoXSn0ml5JeQ-CER5t-0" value="Онлайн &lt;br&gt;консультация" style="whiteSpace=wrap;html=1;rounded=0;" parent="chyshb_qgsGk9aUkCrZT-1" vertex="1">
          <mxGeometry x="760" y="1481" width="120" height="60" as="geometry" />
        </mxCell>
        <mxCell id="aHwNBLBxzH7Cfxhc9vWb-2" style="edgeStyle=orthogonalEdgeStyle;rounded=0;orthogonalLoop=1;jettySize=auto;html=1;entryX=0;entryY=0.5;entryDx=0;entryDy=0;" parent="chyshb_qgsGk9aUkCrZT-1" source="pt7gLRfbFQfl7gQT_sUc-0" target="aHwNBLBxzH7Cfxhc9vWb-1" edge="1">
          <mxGeometry relative="1" as="geometry" />
        </mxCell>
        <mxCell id="pt7gLRfbFQfl7gQT_sUc-0" value="Подготовка заключения" style="whiteSpace=wrap;html=1;rounded=0;" parent="chyshb_qgsGk9aUkCrZT-1" vertex="1">
          <mxGeometry x="920" y="1390" width="120" height="60" as="geometry" />
        </mxCell>
        <mxCell id="aHwNBLBxzH7Cfxhc9vWb-1" value="документы" style="html=1;dashed=0;whitespace=wrap;shape=partialRectangle;right=0;" parent="chyshb_qgsGk9aUkCrZT-1" vertex="1">
          <mxGeometry x="1090" y="1405" width="100" height="30" as="geometry" />
        </mxCell>
        <mxCell id="aHwNBLBxzH7Cfxhc9vWb-4" value="Врач" style="shape=umlActor;verticalLabelPosition=bottom;verticalAlign=top;html=1;outlineConnect=0;" parent="chyshb_qgsGk9aUkCrZT-1" vertex="1">
          <mxGeometry x="665" y="990" width="30" height="60" as="geometry" />
        </mxCell>
        <mxCell id="aHwNBLBxzH7Cfxhc9vWb-7" value="" style="endArrow=none;html=1;entryX=0.5;entryY=1;entryDx=0;entryDy=0;strokeColor=#B85450;exitX=0.5;exitY=0;exitDx=0;exitDy=0;" parent="chyshb_qgsGk9aUkCrZT-1" source="aHwNBLBxzH7Cfxhc9vWb-12" target="cs4Cjibk9OwdWQ8Tq4Z0-12" edge="1">
          <mxGeometry width="50" height="50" relative="1" as="geometry">
            <mxPoint x="530" y="950" as="sourcePoint" />
            <mxPoint x="580" y="900" as="targetPoint" />
          </mxGeometry>
        </mxCell>
        <mxCell id="aHwNBLBxzH7Cfxhc9vWb-10" value="Проводит прием" style="rounded=0;whiteSpace=wrap;html=1;" parent="chyshb_qgsGk9aUkCrZT-1" vertex="1">
          <mxGeometry x="460" y="990" width="120" height="60" as="geometry" />
        </mxCell>
        <mxCell id="aHwNBLBxzH7Cfxhc9vWb-11" value="" style="endArrow=none;html=1;strokeColor=#000000;entryX=1;entryY=0.5;entryDx=0;entryDy=0;" parent="chyshb_qgsGk9aUkCrZT-1" source="aHwNBLBxzH7Cfxhc9vWb-4" target="aHwNBLBxzH7Cfxhc9vWb-10" edge="1">
          <mxGeometry width="50" height="50" relative="1" as="geometry">
            <mxPoint x="450" y="880" as="sourcePoint" />
            <mxPoint x="500" y="830" as="targetPoint" />
          </mxGeometry>
        </mxCell>
        <mxCell id="aHwNBLBxzH7Cfxhc9vWb-12" value="Подготовка заключения" style="whiteSpace=wrap;html=1;rounded=0;" parent="chyshb_qgsGk9aUkCrZT-1" vertex="1">
          <mxGeometry x="460" y="910" width="120" height="60" as="geometry" />
        </mxCell>
        <mxCell id="aHwNBLBxzH7Cfxhc9vWb-14" value="Клиент" style="shape=umlActor;verticalLabelPosition=bottom;verticalAlign=top;html=1;outlineConnect=0;" parent="chyshb_qgsGk9aUkCrZT-1" vertex="1">
          <mxGeometry x="600" y="1640" width="30" height="60" as="geometry" />
        </mxCell>
        <mxCell id="AYNb8dDpuPRthrVBNWEp-12" style="edgeStyle=orthogonalEdgeStyle;rounded=1;orthogonalLoop=1;jettySize=auto;html=1;entryX=0.5;entryY=1;entryDx=0;entryDy=0;strokeColor=#B85450;" parent="chyshb_qgsGk9aUkCrZT-1" source="aHwNBLBxzH7Cfxhc9vWb-15" target="yCwoXSn0ml5JeQ-CER5t-0" edge="1">
          <mxGeometry relative="1" as="geometry">
            <Array as="points">
              <mxPoint x="820" y="1670" />
            </Array>
          </mxGeometry>
        </mxCell>
        <mxCell id="AYNb8dDpuPRthrVBNWEp-13" style="edgeStyle=orthogonalEdgeStyle;rounded=1;orthogonalLoop=1;jettySize=auto;html=1;entryX=0.5;entryY=1;entryDx=0;entryDy=0;strokeColor=#B85450;" parent="chyshb_qgsGk9aUkCrZT-1" source="aHwNBLBxzH7Cfxhc9vWb-15" target="GF2MeVGgzaxk7HecmpOx-2" edge="1">
          <mxGeometry relative="1" as="geometry">
            <Array as="points">
              <mxPoint x="910" y="1670" />
              <mxPoint x="910" y="1400" />
              <mxPoint x="820" y="1400" />
            </Array>
          </mxGeometry>
        </mxCell>
        <mxCell id="aHwNBLBxzH7Cfxhc9vWb-15" value="Посещение приема" style="rounded=0;whiteSpace=wrap;html=1;" parent="chyshb_qgsGk9aUkCrZT-1" vertex="1">
          <mxGeometry x="690" y="1640" width="120" height="60" as="geometry" />
        </mxCell>
        <mxCell id="AYNb8dDpuPRthrVBNWEp-0" value="" style="endArrow=none;html=1;strokeColor=#000000;entryX=1;entryY=0.5;entryDx=0;entryDy=0;" parent="chyshb_qgsGk9aUkCrZT-1" source="aHwNBLBxzH7Cfxhc9vWb-4" target="aHwNBLBxzH7Cfxhc9vWb-12" edge="1">
          <mxGeometry width="50" height="50" relative="1" as="geometry">
            <mxPoint x="630" y="990" as="sourcePoint" />
            <mxPoint x="680" y="940" as="targetPoint" />
          </mxGeometry>
        </mxCell>
        <mxCell id="AYNb8dDpuPRthrVBNWEp-1" value="Просмотр расписания" style="rounded=0;whiteSpace=wrap;html=1;" parent="chyshb_qgsGk9aUkCrZT-1" vertex="1">
          <mxGeometry x="460" y="1070" width="120" height="60" as="geometry" />
        </mxCell>
        <mxCell id="AYNb8dDpuPRthrVBNWEp-3" value="" style="endArrow=none;html=1;strokeColor=#000000;exitX=1;exitY=0.5;exitDx=0;exitDy=0;" parent="chyshb_qgsGk9aUkCrZT-1" source="AYNb8dDpuPRthrVBNWEp-1" target="aHwNBLBxzH7Cfxhc9vWb-4" edge="1">
          <mxGeometry width="50" height="50" relative="1" as="geometry">
            <mxPoint x="470" y="950" as="sourcePoint" />
            <mxPoint x="520" y="900" as="targetPoint" />
          </mxGeometry>
        </mxCell>
        <mxCell id="AYNb8dDpuPRthrVBNWEp-4" value="" style="endArrow=none;html=1;strokeColor=#B85450;exitX=0;exitY=0.5;exitDx=0;exitDy=0;entryX=0.5;entryY=1;entryDx=0;entryDy=0;" parent="chyshb_qgsGk9aUkCrZT-1" source="AYNb8dDpuPRthrVBNWEp-1" target="AYNb8dDpuPRthrVBNWEp-5" edge="1">
          <mxGeometry width="50" height="50" relative="1" as="geometry">
            <mxPoint x="400" y="980" as="sourcePoint" />
            <mxPoint x="360" y="910" as="targetPoint" />
          </mxGeometry>
        </mxCell>
        <mxCell id="AYNb8dDpuPRthrVBNWEp-5" value="записи" style="html=1;dashed=0;whitespace=wrap;shape=partialRectangle;right=0;" parent="chyshb_qgsGk9aUkCrZT-1" vertex="1">
          <mxGeometry x="240" y="857" width="100" height="30" as="geometry" />
        </mxCell>
        <mxCell id="AYNb8dDpuPRthrVBNWEp-8" style="edgeStyle=orthogonalEdgeStyle;rounded=0;orthogonalLoop=1;jettySize=auto;html=1;entryX=0.5;entryY=0;entryDx=0;entryDy=0;strokeColor=#000000;" parent="chyshb_qgsGk9aUkCrZT-1" source="AYNb8dDpuPRthrVBNWEp-7" target="2UkPymPjS6IrArlJtV-6-1" edge="1">
          <mxGeometry relative="1" as="geometry" />
        </mxCell>
        <mxCell id="AYNb8dDpuPRthrVBNWEp-7" value="записи" style="html=1;dashed=0;whitespace=wrap;shape=partialRectangle;right=0;" parent="chyshb_qgsGk9aUkCrZT-1" vertex="1">
          <mxGeometry x="250" y="1315" width="100" height="30" as="geometry" />
        </mxCell>
        <mxCell id="AYNb8dDpuPRthrVBNWEp-10" style="edgeStyle=orthogonalEdgeStyle;rounded=0;orthogonalLoop=1;jettySize=auto;html=1;entryX=0.5;entryY=0;entryDx=0;entryDy=0;strokeColor=#000000;" parent="chyshb_qgsGk9aUkCrZT-1" source="AYNb8dDpuPRthrVBNWEp-9" target="ovW-oeSNcMlRHgaaRVNm-0" edge="1">
          <mxGeometry relative="1" as="geometry" />
        </mxCell>
        <mxCell id="AYNb8dDpuPRthrVBNWEp-9" value="документы" style="html=1;dashed=0;whitespace=wrap;shape=partialRectangle;right=0;" parent="chyshb_qgsGk9aUkCrZT-1" vertex="1">
          <mxGeometry x="450" y="1315" width="100" height="30" as="geometry" />
        </mxCell>
        <mxCell id="AYNb8dDpuPRthrVBNWEp-11" value="" style="endArrow=none;html=1;strokeColor=#000000;entryX=0;entryY=0.5;entryDx=0;entryDy=0;" parent="chyshb_qgsGk9aUkCrZT-1" source="aHwNBLBxzH7Cfxhc9vWb-14" target="aHwNBLBxzH7Cfxhc9vWb-15" edge="1">
          <mxGeometry width="50" height="50" relative="1" as="geometry">
            <mxPoint x="730" y="1520" as="sourcePoint" />
            <mxPoint x="780" y="1470" as="targetPoint" />
          </mxGeometry>
        </mxCell>
        <mxCell id="pt7gLRfbFQfl7gQT_sUc-2" style="edgeStyle=orthogonalEdgeStyle;rounded=1;orthogonalLoop=1;jettySize=auto;html=1;entryX=0.5;entryY=1;entryDx=0;entryDy=0;sketch=0;shadow=0;jumpStyle=arc;jumpSize=9;" parent="chyshb_qgsGk9aUkCrZT-1" source="yCwoXSn0ml5JeQ-CER5t-0" target="pt7gLRfbFQfl7gQT_sUc-0" edge="1">
          <mxGeometry relative="1" as="geometry" />
        </mxCell>
        <mxCell id="KH-G6GTsXujQ4tf0-j3i-0" value="&lt;h1&gt;Действия&lt;br&gt;&lt;/h1&gt;&lt;p&gt;Врач:&lt;/p&gt;&lt;p&gt;1) просмотр расписания&lt;br&gt;2) проведение приема&lt;br&gt;3) подготовка заключения&lt;br&gt;&lt;/p&gt;&lt;p&gt;&lt;br&gt;&lt;/p&gt;&lt;div&gt;&lt;br&gt;&lt;/div&gt;&lt;div&gt;&lt;br&gt;&lt;/div&gt;" style="text;html=1;strokeColor=none;fillColor=none;spacing=5;spacingTop=-20;whiteSpace=wrap;overflow=hidden;rounded=0;" parent="chyshb_qgsGk9aUkCrZT-1" vertex="1">
          <mxGeometry x="10" y="1500" width="190" height="180" as="geometry" />
        </mxCell>
        <mxCell id="_Hzn1EHsOx0p-OMz16X2-4" style="edgeStyle=orthogonalEdgeStyle;rounded=1;orthogonalLoop=1;jettySize=auto;html=1;" edge="1" parent="chyshb_qgsGk9aUkCrZT-1" source="_Hzn1EHsOx0p-OMz16X2-2" target="dU9Qp3HIcsZKu6jttzmx-3">
          <mxGeometry relative="1" as="geometry">
            <Array as="points">
              <mxPoint x="1080" y="380" />
              <mxPoint x="570" y="380" />
            </Array>
          </mxGeometry>
        </mxCell>
        <mxCell id="_Hzn1EHsOx0p-OMz16X2-2" value="запись" style="html=1;dashed=0;whitespace=wrap;shape=partialRectangle;right=0;" vertex="1" parent="chyshb_qgsGk9aUkCrZT-1">
          <mxGeometry x="1030" y="309" width="100" height="30" as="geometry" />
        </mxCell>
        <mxCell id="_Hzn1EHsOx0p-OMz16X2-8" style="edgeStyle=orthogonalEdgeStyle;rounded=1;orthogonalLoop=1;jettySize=auto;html=1;" edge="1" parent="chyshb_qgsGk9aUkCrZT-1" source="_Hzn1EHsOx0p-OMz16X2-6">
          <mxGeometry relative="1" as="geometry">
            <mxPoint x="820" y="390" as="targetPoint" />
            <Array as="points">
              <mxPoint x="780" y="390" />
            </Array>
          </mxGeometry>
        </mxCell>
        <mxCell id="_Hzn1EHsOx0p-OMz16X2-9" style="edgeStyle=orthogonalEdgeStyle;rounded=1;orthogonalLoop=1;jettySize=auto;html=1;" edge="1" parent="chyshb_qgsGk9aUkCrZT-1" source="_Hzn1EHsOx0p-OMz16X2-6">
          <mxGeometry relative="1" as="geometry">
            <mxPoint x="850" y="550" as="targetPoint" />
            <Array as="points">
              <mxPoint x="780" y="550" />
            </Array>
          </mxGeometry>
        </mxCell>
        <mxCell id="_Hzn1EHsOx0p-OMz16X2-6" value="" style="rhombus;whiteSpace=wrap;html=1;" vertex="1" parent="chyshb_qgsGk9aUkCrZT-1">
          <mxGeometry x="740" y="430" width="80" height="80" as="geometry" />
        </mxCell>
        <mxCell id="_Hzn1EHsOx0p-OMz16X2-12" style="edgeStyle=orthogonalEdgeStyle;rounded=1;orthogonalLoop=1;jettySize=auto;html=1;strokeColor=#000000;" edge="1" parent="chyshb_qgsGk9aUkCrZT-1" source="_Hzn1EHsOx0p-OMz16X2-10" target="_Hzn1EHsOx0p-OMz16X2-11">
          <mxGeometry relative="1" as="geometry" />
        </mxCell>
        <mxCell id="_Hzn1EHsOx0p-OMz16X2-10" value="Клиент" style="shape=umlActor;verticalLabelPosition=bottom;verticalAlign=top;html=1;outlineConnect=0;" vertex="1" parent="chyshb_qgsGk9aUkCrZT-1">
          <mxGeometry x="140" y="590" width="30" height="60" as="geometry" />
        </mxCell>
        <mxCell id="_Hzn1EHsOx0p-OMz16X2-13" style="edgeStyle=orthogonalEdgeStyle;rounded=1;orthogonalLoop=1;jettySize=auto;html=1;strokeColor=#000000;" edge="1" parent="chyshb_qgsGk9aUkCrZT-1" source="_Hzn1EHsOx0p-OMz16X2-11" target="_Hzn1EHsOx0p-OMz16X2-14">
          <mxGeometry relative="1" as="geometry">
            <mxPoint x="440" y="620" as="targetPoint" />
          </mxGeometry>
        </mxCell>
        <mxCell id="_Hzn1EHsOx0p-OMz16X2-11" value="Осуществляет запись" style="rounded=0;whiteSpace=wrap;html=1;" vertex="1" parent="chyshb_qgsGk9aUkCrZT-1">
          <mxGeometry x="230" y="590" width="120" height="60" as="geometry" />
        </mxCell>
        <mxCell id="_Hzn1EHsOx0p-OMz16X2-16" value="" style="edgeStyle=orthogonalEdgeStyle;rounded=1;orthogonalLoop=1;jettySize=auto;html=1;strokeColor=#000000;" edge="1" parent="chyshb_qgsGk9aUkCrZT-1" source="_Hzn1EHsOx0p-OMz16X2-14" target="_Hzn1EHsOx0p-OMz16X2-15">
          <mxGeometry relative="1" as="geometry" />
        </mxCell>
        <mxCell id="_Hzn1EHsOx0p-OMz16X2-14" value="Передает документы" style="whiteSpace=wrap;html=1;rounded=0;" vertex="1" parent="chyshb_qgsGk9aUkCrZT-1">
          <mxGeometry x="430" y="590" width="120" height="60" as="geometry" />
        </mxCell>
        <mxCell id="_Hzn1EHsOx0p-OMz16X2-17" style="edgeStyle=orthogonalEdgeStyle;rounded=1;orthogonalLoop=1;jettySize=auto;html=1;startArrow=none;startFill=0;strokeColor=#000000;" edge="1" parent="chyshb_qgsGk9aUkCrZT-1" source="_Hzn1EHsOx0p-OMz16X2-15" target="cs4Cjibk9OwdWQ8Tq4Z0-14">
          <mxGeometry relative="1" as="geometry" />
        </mxCell>
        <mxCell id="_Hzn1EHsOx0p-OMz16X2-15" value="Выполняет оплату" style="whiteSpace=wrap;html=1;rounded=0;" vertex="1" parent="chyshb_qgsGk9aUkCrZT-1">
          <mxGeometry x="630" y="590" width="120" height="60" as="geometry" />
        </mxCell>
        <mxCell id="_Hzn1EHsOx0p-OMz16X2-18" value="График приема?" style="rounded=0;whiteSpace=wrap;html=1;fillColor=#f8cecc;strokeColor=#b85450;" vertex="1" parent="chyshb_qgsGk9aUkCrZT-1">
          <mxGeometry x="800" y="910" width="120" height="60" as="geometry" />
        </mxCell>
        <mxCell id="_Hzn1EHsOx0p-OMz16X2-19" value="&lt;h1&gt;Посещение врача&lt;/h1&gt;" style="text;html=1;strokeColor=none;fillColor=none;spacing=5;spacingTop=-20;whiteSpace=wrap;overflow=hidden;rounded=0;" vertex="1" parent="chyshb_qgsGk9aUkCrZT-1">
          <mxGeometry x="50" y="1225" width="250" height="55" as="geometry" />
        </mxCell>
      </root>
    </mxGraphModel>
  </diagram>
</mxfile>
